<?xml version="1.0" standalone="no"?>
<!DOCTYPE svg PUBLIC "-//W3C//DTD SVG 20010904//EN"
 "http://www.w3.org/TR/2001/REC-SVG-20010904/DTD/svg10.dtd">
<svg version="1.0" xmlns="http://www.w3.org/2000/svg"
 width="512.000000pt" height="512.000000pt" viewBox="0 0 512.000000 512.000000"
 preserveAspectRatio="xMidYMid meet">

<g transform="translate(0.000000,512.000000) scale(0.100000,-0.100000)"
fill="#000000" stroke="none">
<path d="M2973 4985 c-137 -37 -239 -123 -301 -252 l-37 -78 -3 -300 c-3 -209
0 -317 8 -355 40 -179 185 -318 369 -350 l69 -13 -2 -76 c-1 -66 2 -82 27
-123 33 -57 95 -96 165 -105 86 -10 137 22 282 175 l124 132 452 0 c291 0 472
4 506 11 123 26 247 116 310 226 52 90 60 160 56 480 -4 271 -5 291 -27 345
-48 122 -145 219 -271 271 l-55 22 -810 2 c-675 2 -819 0 -862 -12z m1697
-174 c61 -32 107 -76 138 -136 l27 -50 0 -305 c0 -297 -1 -306 -23 -347 -35
-66 -79 -110 -140 -140 l-57 -28 -502 -5 -503 -5 -154 -154 c-137 -137 -157
-153 -180 -147 -40 10 -49 37 -37 116 26 168 16 182 -133 191 -121 7 -181 32
-244 104 -70 79 -74 102 -70 437 3 337 3 336 99 422 87 79 43 75 939 73 l795
-2 45 -24z"/>
<path d="M3117 4497 c-12 -31 9 -38 109 -35 94 3 99 4 102 26 3 22 2 22 -101
22 -78 0 -106 -3 -110 -13z"/>
<path d="M3517 4497 c-12 -31 9 -38 109 -35 94 3 99 4 102 26 3 22 2 22 -101
22 -78 0 -106 -3 -110 -13z"/>
<path d="M3917 4497 c-12 -31 9 -38 109 -35 94 3 99 4 102 26 3 22 2 22 -101
22 -78 0 -106 -3 -110 -13z"/>
<path d="M4317 4497 c-12 -31 9 -38 109 -35 94 3 99 4 102 26 3 22 2 22 -101
22 -78 0 -106 -3 -110 -13z"/>
<path d="M3117 4177 c-12 -31 9 -38 109 -35 94 3 99 4 102 26 3 22 2 22 -101
22 -78 0 -106 -3 -110 -13z"/>
<path d="M3517 4177 c-12 -31 9 -38 109 -35 94 3 99 4 102 26 3 22 2 22 -101
22 -78 0 -106 -3 -110 -13z"/>
<path d="M1865 3916 c-90 -41 -135 -114 -135 -218 0 -52 6 -73 30 -115 28 -49
89 -103 117 -103 10 0 13 -23 13 -85 l0 -84 -487 -3 c-484 -3 -489 -4 -552
-27 -84 -31 -199 -110 -256 -174 -89 -100 -154 -272 -155 -404 l0 -51 -93 -4
c-116 -4 -160 -28 -201 -109 l-26 -53 0 -320 c0 -202 4 -336 11 -361 15 -55
83 -119 142 -133 25 -7 73 -12 106 -12 34 0 61 -2 61 -5 0 -3 7 -41 16 -83 43
-213 201 -391 409 -459 68 -22 103 -27 238 -31 l157 -4 0 -78 0 -79 -257 -3
-258 -3 -67 -32 c-93 -44 -151 -100 -196 -191 l-37 -76 0 -197 c0 -217 2 -223
69 -273 27 -21 29 -21 1451 -21 1422 0 1424 0 1451 21 67 50 69 57 69 267 0
177 -2 196 -24 250 -43 108 -142 203 -251 239 -21 7 -132 13 -287 15 l-253 4
0 80 0 79 130 0 c79 0 161 6 208 16 214 43 392 204 457 412 13 42 27 94 30
115 l6 37 60 0 c95 0 147 17 195 66 27 26 47 58 54 84 7 27 10 150 8 368 -3
325 -3 327 -27 369 -14 24 -42 55 -64 70 -36 25 -51 28 -134 31 l-93 4 0 51
c-1 129 -58 284 -146 391 -57 71 -155 140 -252 180 l-77 31 -487 3 -488 3 0
82 1 82 44 27 c65 39 105 114 105 196 0 34 -6 77 -13 95 -52 123 -200 180
-322 123z m169 -188 c23 -65 -35 -120 -99 -94 -58 24 -60 107 -2 131 41 17 88
0 101 -37z m985 -597 c157 -49 277 -182 311 -346 7 -35 10 -242 8 -616 -4
-634 -1 -612 -80 -729 -47 -71 -130 -137 -216 -172 l-57 -23 -1005 0 c-1131 0
-1058 -5 -1180 77 -71 47 -137 130 -172 216 -23 57 -23 58 -26 622 -2 398 0
583 8 625 31 159 144 288 301 345 52 19 93 19 1051 20 950 0 999 -1 1057 -19z
m-2579 -971 l0 -330 -70 0 c-58 0 -71 3 -80 19 -6 12 -10 130 -10 315 0 343
-5 326 96 326 l64 0 0 -330z m3204 308 c14 -19 16 -65 16 -305 0 -159 -4 -293
-10 -307 -9 -25 -14 -26 -80 -26 l-70 0 0 330 0 330 64 0 c56 0 67 -3 80 -22z
m-1134 -1468 l0 -80 -545 0 -545 0 0 80 0 80 545 0 545 0 0 -80z m680 -264
c49 -26 88 -64 113 -111 19 -35 22 -60 25 -192 l4 -153 -1366 0 -1366 0 0 136
c0 78 5 154 12 178 15 51 99 137 148 153 25 8 373 11 1215 10 1130 -2 1181 -3
1215 -21z"/>
<path d="M1009 2990 c-95 -16 -168 -68 -214 -151 l-30 -54 -3 -564 c-3 -661
-6 -639 86 -731 98 -97 18 -91 1142 -88 l975 3 50 27 c60 31 104 77 136 138
l24 45 0 580 c0 572 0 581 -21 626 -26 56 -86 118 -137 142 -21 10 -63 22 -95
27 -69 12 -1846 11 -1913 0z m1966 -201 c26 -29 35 -49 40 -90 3 -30 5 -277 3
-549 -3 -545 -1 -522 -66 -567 -26 -17 -75 -18 -982 -18 -896 0 -958 1 -983
18 -64 42 -62 21 -65 577 -2 278 0 524 3 547 7 45 44 99 79 113 12 5 452 8
979 7 l959 -2 33 -36z"/>
<path d="M1470 2661 c-115 -38 -179 -122 -180 -237 -1 -217 254 -323 410 -171
46 45 70 101 70 170 0 96 -47 174 -134 219 -43 22 -128 32 -166 19z m119 -187
c27 -35 26 -66 -2 -100 -17 -20 -33 -27 -57 -27 -24 0 -40 7 -57 27 -28 34
-29 65 -2 100 16 20 29 26 59 26 30 0 43 -6 59 -26z"/>
<path d="M2297 2654 c-31 -9 -65 -31 -92 -59 -113 -112 -89 -294 50 -380 42
-26 58 -30 119 -30 79 1 131 22 177 72 48 51 63 92 63 168 0 76 -15 117 -63
168 -60 65 -164 90 -254 61z m118 -160 c23 -9 46 -60 39 -88 -10 -42 -42 -61
-96 -57 -30 2 -58 38 -58 76 0 59 55 92 115 69z"/>
<path d="M1488 2000 c-25 -26 -29 -36 -24 -63 9 -43 46 -80 127 -122 114 -60
201 -78 374 -78 173 0 260 18 374 78 81 42 118 79 127 122 5 27 1 37 -24 63
-38 38 -76 39 -123 4 -106 -80 -213 -108 -384 -101 -141 5 -192 20 -295 82
-41 24 -85 45 -98 45 -13 0 -37 -14 -54 -30z"/>
</g>
</svg>
